HIERARCHY
ROOT root
{
	OFFSET 0.000000 0.000000 0.000000
	CHANNELS 6 Xposition Yposition Zposition Zrotation Yrotation Xrotation
	JOINT lhip
	{
		OFFSET 0.058581 -0.082280 -0.017664
		CHANNELS 3 Zrotation Yrotation Xrotation
		JOINT lknee
		{
			OFFSET 0.043451 -0.386469 0.008037
			CHANNELS 3 Zrotation Yrotation Xrotation
			JOINT lankle
			{
				OFFSET -0.014790 -0.426874 -0.037428
				CHANNELS 3 Zrotation Yrotation Xrotation
				JOINT ltoe
				{
					OFFSET 0.041054 -0.060286 0.122042
					CHANNELS 3 Zrotation Yrotation Xrotation
					End Site
					{
						OFFSET 0.000000 0.000000 0.000000
					}
				}
			}
		}
	}
	JOINT rhip
	{
		OFFSET -0.060310 -0.090513 -0.013543
		CHANNELS 3 Zrotation Yrotation Xrotation
		JOINT rknee
		{
			OFFSET -0.043257 -0.383688 -0.004843
			CHANNELS 3 Zrotation Yrotation Xrotation
			JOINT rankle
			{
				OFFSET 0.019056 -0.420046 -0.034562
				CHANNELS 3 Zrotation Yrotation Xrotation
				JOINT rtoe
				{
					OFFSET -0.034840 -0.062106 0.130323
					CHANNELS 3 Zrotation Yrotation Xrotation
					End Site
					{
						OFFSET 0.000000 0.000000 0.000000
					}
				}
			}
		}
	}
	JOINT lowerback
	{
		OFFSET 0.004439 0.124404 -0.038385
		CHANNELS 3 Zrotation Yrotation Xrotation
		JOINT upperback
		{
			OFFSET 0.004488 0.137956 0.026820
			CHANNELS 3 Zrotation Yrotation Xrotation
			JOINT chest
			{
				OFFSET -0.002265 0.056032 0.002855
				CHANNELS 3 Zrotation Yrotation Xrotation
				JOINT lowerneck
				{
					OFFSET -0.013390 0.211636 -0.033468
					CHANNELS 3 Zrotation Yrotation Xrotation
					JOINT upperneck
					{
						OFFSET 0.010113 0.088937 0.050410
						CHANNELS 3 Zrotation Yrotation Xrotation
						End Site
						{
							OFFSET 0.000000 0.000000 0.000000
						}
					}
				}
				JOINT lclavicle
				{
					OFFSET 0.071702 0.114000 -0.018898
					CHANNELS 3 Zrotation Yrotation Xrotation
					JOINT lshoulder
					{
						OFFSET 0.122921 0.045205 -0.019046
						CHANNELS 3 Zrotation Yrotation Xrotation
						JOINT lelbow
						{
							OFFSET 0.255332 -0.015649 -0.022946
							CHANNELS 3 Zrotation Yrotation Xrotation
							JOINT lwrist
							{
								OFFSET 0.265709 0.012698 -0.007375
								CHANNELS 3 Zrotation Yrotation Xrotation
								End Site
								{
									OFFSET 0.000000 0.000000 0.000000
								}
							}
						}
					}
				}
				JOINT rclavicle
				{
					OFFSET -0.082954 0.112472 -0.023707
					CHANNELS 3 Zrotation Yrotation Xrotation
					JOINT rshoulder
					{
						OFFSET -0.113228 0.046853 -0.008472
						CHANNELS 3 Zrotation Yrotation Xrotation
						JOINT relbow
						{
							OFFSET -0.260127 -0.014369 -0.031269
							CHANNELS 3 Zrotation Yrotation Xrotation
							JOINT rwrist
							{
								OFFSET -0.269108 0.006794 -0.006027
								CHANNELS 3 Zrotation Yrotation Xrotation
								End Site
								{
									OFFSET 0.000000 0.000000 0.000000
								}
							}
						}
					}
				}
			}
		}
	}
}
MOTION
Frames: 17
Frame Time: 0.033333
0.121337 -0.397660 1.089514 27.005005 -4.718543 93.016384 0.464094 -4.350890 -11.228703 -0.181623 -14.771547 2.206844 -13.881457 11.447635 14.964268 0.000000 -0.000000 0.000000 -7.431455 -6.019801 3.776592 -5.078692 12.961361 10.428463 12.434603 -8.086282 -3.136514 0.000000 -0.000000 0.000000 0.715370 8.423613 4.650280 -4.685218 -3.171829 0.124849 0.946702 5.634045 -7.065832 -3.773815 -0.198706 3.046882 11.988001 3.345290 -23.278419 46.527366 -18.990931 -35.503566 22.830227 -30.480013 -38.774810 15.598313 -1.396152 -40.679120 -1.215316 -7.334210 -12.467903 -45.518213 22.408852 -23.668801 -17.706206 19.359307 -38.201006 -10.815969 0.370081 -31.924988 -0.095810 0.845045 -15.565707 
0.141884 -0.400258 1.054576 25.337032 -3.678798 91.442877 -0.216054 -3.984257 -10.843656 -2.360428 -16.555886 10.454060 -6.766054 11.321867 -2.052556 0.000000 -0.000000 0.000000 -8.242206 -5.717006 6.965339 -4.313520 16.435309 11.429182 12.123316 -8.305047 -12.424711 0.000000 -0.000000 0.000000 1.511249 8.699394 5.174141 -3.901537 -2.994380 -0.369775 1.252176 6.361203 -4.820499 -2.545929 0.075648 4.912838 11.147745 2.670347 -19.446791 45.867911 -18.414711 -34.934080 23.115529 -28.906463 -38.453099 14.946642 -3.138520 -39.554188 0.414163 -7.205330 -12.564719 -45.294508 22.909135 -23.839318 -16.950662 21.135558 -38.071957 -10.093766 0.302681 -32.777214 -0.870125 1.116893 -14.992552 
0.155458 -0.400684 1.023197 25.586532 -4.054704 89.983094 -1.830640 -2.995043 -12.418902 -5.101842 -17.666731 17.718161 -2.028839 13.321863 -10.260142 0.000000 -0.000000 0.000000 -9.180907 -5.573464 9.191867 -4.469149 18.194629 13.142423 10.111393 -10.012979 -19.118655 0.000000 -0.000000 0.000000 0.708133 8.328723 7.482297 -3.838410 -3.989355 -2.466968 1.536719 6.150077 -2.624328 -2.291213 0.383865 5.323853 11.092423 2.228879 -15.942095 45.194668 -18.750189 -34.734733 23.485552 -26.698625 -38.429381 14.990085 -6.940928 -37.541738 1.692034 -7.311861 -12.775939 -44.720826 22.822362 -24.484939 -14.930493 22.821066 -37.268527 -10.290244 1.488717 -31.550585 -1.229006 1.446672 -12.937051 
0.165837 -0.397351 1.006277 26.337042 -4.542729 89.685203 -2.881555 -4.742989 -14.941342 -6.837054 -16.523794 23.365701 -0.238928 14.394330 -13.633209 0.000000 -0.000000 0.000000 -9.177948 -4.799618 8.151204 -4.156667 17.866910 17.003100 9.055031 -12.626202 -22.827742 0.000000 -0.000000 0.000000 0.868073 8.131882 7.802479 -4.062823 -4.377563 -2.192634 0.667845 5.750056 -1.866435 -2.785073 -0.679769 4.596492 10.571372 0.998257 -14.779581 42.406480 -19.440707 -33.632062 24.185381 -26.905667 -38.016658 16.362307 -10.765745 -38.047208 3.132088 -8.140418 -14.141030 -42.800833 22.999564 -24.467149 -14.015959 24.358251 -35.408558 -10.556730 2.753421 -30.611559 -4.146916 2.072441 -10.885796 
0.171532 -0.394528 1.004703 25.455140 -5.009830 88.873619 -3.386612 -6.014349 -14.560048 -7.488077 -15.866321 24.504107 -0.091340 15.195046 -13.658653 0.000000 -0.000000 0.000000 -8.764867 -3.380138 6.075516 -3.882774 16.680020 21.952665 8.326408 -14.971590 -23.861951 0.000000 -0.000000 0.000000 0.407769 8.430812 8.210830 -4.140539 -3.264496 -0.860212 0.412400 5.945360 -2.152414 -3.615183 -0.294314 3.987227 9.666336 0.022698 -13.656403 39.440061 -21.212383 -32.444398 23.197199 -27.435257 -36.071841 17.742719 -15.107158 -39.900651 3.328317 -8.719869 -15.314192 -39.763702 24.530014 -23.902183 -13.782846 24.905279 -33.681304 -11.255433 4.150802 -30.910904 -5.604175 2.497743 -8.663049 
0.175101 -0.392059 1.012765 24.790445 -4.966512 88.497349 -3.703834 -6.266144 -12.955000 -6.571432 -15.647195 22.152520 -0.206037 15.474526 -11.660263 0.000000 -0.000000 0.000000 -7.914759 -2.804816 4.655724 -3.971109 15.112675 23.793966 7.117906 -17.049773 -21.910555 0.000000 -0.000000 0.000000 0.476296 7.958215 8.091723 -4.112330 -2.398870 -0.238210 0.076038 6.010289 -2.334203 -3.717484 0.693758 3.634660 8.232937 0.240875 -12.419218 36.313591 -22.184575 -29.725097 21.919011 -28.165878 -33.319616 17.800299 -18.001019 -37.655546 2.486572 -9.418825 -15.831456 -36.552071 25.989345 -22.307472 -13.968329 26.350721 -32.780887 -11.114976 4.204865 -30.694482 -5.788994 3.090192 -8.147895 
0.176220 -0.388591 1.025648 24.498881 -4.311270 88.833534 -3.361897 -5.601628 -11.730608 -5.137586 -15.520694 18.516385 -0.792505 15.125717 -8.331084 0.000000 -0.000000 0.000000 -7.010419 -3.804420 3.912754 -4.403061 12.779374 21.915603 5.990382 -18.142602 -18.038348 0.000000 -0.000000 0.000000 0.866406 7.357688 7.178894 -3.962001 -2.373290 0.598934 0.157976 5.874011 -2.946153 -4.052269 1.457573 3.465536 7.401775 1.637362 -12.286164 34.052052 -23.049623 -27.360743 19.684115 -27.312357 -30.159621 16.314839 -20.732801 -33.027738 1.200574 -9.431969 -13.644543 -34.907404 27.454702 -20.570304 -13.822390 26.924167 -32.495728 -9.786246 3.944424 -29.686144 -6.146298 3.328493 -8.157170 
0.175719 -0.382964 1.038627 23.772949 -3.750385 89.566728 -2.769325 -4.891275 -10.980023 -3.880197 -15.001660 14.793045 -1.791223 14.566798 -5.177213 0.000000 -0.000000 0.000000 -6.543541 -4.779322 3.025795 -4.139699 11.505693 19.274018 5.734106 -17.169618 -15.819588 0.000000 -0.000000 0.000000 1.033385 7.239413 5.891542 -3.794993 -2.296603 1.933528 0.313832 5.619648 -3.832569 -4.219089 1.905743 3.085366 6.859298 2.207824 -13.077762 32.350804 -23.918742 -25.814311 17.677190 -26.602181 -27.680495 15.084190 -21.680371 -29.509993 -0.371596 -9.400595 -11.455182 -33.560441 28.615670 -19.230310 -14.149759 26.972799 -32.744756 -8.956607 2.981547 -28.433101 -5.924265 3.308029 -7.217029 
0.173308 -0.377233 1.048124 22.733555 -2.968114 90.128001 -1.871023 -3.967668 -10.402657 -2.793701 -14.106892 11.768072 -2.877127 13.923195 -2.880215 0.000000 -0.000000 0.000000 -5.311907 -4.594420 1.714589 -3.392373 12.288385 18.440583 6.609629 -14.305744 -16.843324 0.000000 -0.000000 0.000000 1.099708 6.990716 5.077168 -3.420248 -2.073810 3.038810 0.485349 5.413228 -4.817060 -3.651519 2.311933 2.332586 6.439195 2.447723 -14.067493 30.772598 -24.370699 -24.731438 15.751142 -26.537549 -26.296001 15.016761 -21.265604 -28.722115 -0.640596 -9.462007 -11.768669 -32.476704 29.337998 -18.066846 -14.524636 27.013121 -33.755626 -9.138582 2.152371 -29.102213 -6.509630 3.221538 -7.825902 
0.169542 -0.372449 1.052678 22.272307 -2.173630 90.245103 -1.057342 -3.139134 -9.753490 -2.066991 -13.684753 9.544304 -3.628031 13.906077 -1.515617 0.000000 -0.000000 0.000000 -3.195945 -2.861016 0.761727 -2.643872 14.010543 19.967451 6.643304 -12.735298 -18.212756 0.000000 -0.000000 0.000000 1.046016 5.977046 4.598693 -3.129970 -2.035164 3.941872 0.580869 5.221924 -5.320766 -2.947163 3.010898 1.419032 6.185390 3.158467 -14.883480 29.332417 -24.594854 -24.291970 14.527698 -26.078992 -25.341687 15.445079 -21.115403 -29.549422 0.590324 -9.556237 -12.396051 -31.407218 29.583308 -17.406367 -15.175993 27.066585 -34.770553 -9.198335 1.992682 -30.887622 -8.344818 3.148912 -8.963566 
0.164837 -0.367538 1.052677 22.703275 -1.784248 89.748263 -0.845401 -2.918429 -8.959951 -1.580167 -13.702065 8.235356 -3.640898 14.326126 -1.171294 0.000000 -0.000000 0.000000 -1.081489 -0.725426 0.543862 -1.350722 15.447960 23.641907 6.932033 -11.399236 -19.496266 0.000000 -0.000000 0.000000 0.623462 4.789404 4.834245 -2.985671 -2.407818 4.499288 0.570280 5.025601 -5.501977 -1.997573 3.581966 0.574122 6.398176 3.501390 -15.273292 28.571702 -24.922494 -24.492808 13.938850 -25.649320 -24.999205 15.956647 -20.420918 -30.371156 0.609652 -9.603948 -11.996357 -31.147234 29.367949 -17.728965 -14.953206 26.816230 -34.567734 -9.493132 1.668364 -31.263138 -8.538829 3.266688 -8.903164 
0.159477 -0.363115 1.048836 23.304018 -1.771702 88.925382 -0.804659 -3.082622 -8.074412 -1.394075 -14.335907 7.547049 -3.432804 14.863065 -1.561013 0.000000 -0.000000 0.000000 0.638846 1.003221 1.117683 0.396868 16.911213 27.421952 7.538689 -9.759664 -20.328551 0.000000 -0.000000 0.000000 -0.060368 4.013408 5.356491 -2.835977 -2.705624 4.589674 0.634775 4.671873 -5.451879 -1.373510 3.795127 0.679567 6.303507 3.346056 -15.316568 27.674852 -25.119648 -24.230014 13.613703 -25.126548 -24.428235 16.551750 -20.227406 -31.805411 1.254028 -9.554824 -11.513793 -30.847071 28.973897 -18.162538 -15.144642 26.507245 -34.318640 -9.313831 1.446895 -31.589064 -9.613260 3.227076 -7.696506 
0.153420 -0.357974 1.042655 23.629137 -2.159467 88.579293 -0.775644 -3.552513 -8.101992 -1.684968 -14.541318 7.577405 -3.099545 14.927661 -2.229767 0.000000 -0.000000 0.000000 1.481228 1.220850 1.686255 1.576505 18.376897 28.643961 8.128618 -7.835325 -18.644667 0.000000 -0.000000 0.000000 -0.325328 4.061081 5.117438 -3.057796 -3.004928 4.674870 0.328187 4.350571 -5.110128 -1.613018 3.775887 0.917995 6.029925 3.188741 -14.865335 26.736162 -24.940931 -24.133268 13.111413 -24.823765 -23.685562 16.974671 -20.844173 -32.275325 2.239224 -9.753177 -10.963868 -30.452613 28.420179 -18.491492 -15.547522 26.202351 -34.350288 -9.562778 1.585377 -32.525308 -10.970931 3.184779 -7.571404 
0.146678 -0.351513 1.036357 23.340748 -2.948314 88.592819 -1.024107 -3.722904 -8.703972 -1.860310 -14.278673 7.746734 -3.097772 14.470978 -2.510173 0.000000 -0.000000 0.000000 1.200468 0.274259 2.318943 -0.205106 17.714072 25.904084 6.952847 -9.865266 -18.739012 0.000000 -0.000000 0.000000 -0.305525 4.606070 4.933714 -3.729065 -2.645120 4.154854 -0.049667 4.254949 -4.527445 -2.653550 3.730949 0.824491 5.417425 2.949145 -13.954269 25.647319 -24.171691 -23.433656 12.600918 -24.907339 -23.333749 17.682219 -22.155700 -31.650641 3.016201 -9.663565 -10.823325 -30.087299 27.290392 -18.846773 -16.021964 26.322262 -34.762338 -10.251087 1.669290 -34.044974 -12.230002 3.170319 -6.945014 
0.139111 -0.342702 1.031943 22.426047 -3.775485 88.519111 -1.401835 -3.394245 -9.228141 -1.842327 -13.793869 7.706608 -3.348764 14.210440 -2.185478 0.000000 -0.000000 0.000000 0.218271 -1.020144 3.223942 -0.942142 17.511276 22.954034 6.118405 -9.284895 -20.316846 0.000000 -0.000000 0.000000 0.374153 5.216353 5.445324 -4.736365 -2.047989 3.800674 -0.534135 4.385626 -4.377981 -4.289181 3.750732 0.986988 4.546312 3.114569 -13.766108 24.030574 -23.677931 -22.961294 12.494896 -23.948083 -22.722396 18.529061 -24.419484 -31.187860 2.994717 -9.502694 -10.252302 -29.615724 27.154661 -18.730702 -17.655148 25.125013 -35.746108 -10.424768 2.832641 -34.932788 -14.130034 3.451538 -6.844941 
0.130327 -0.331574 1.030562 21.645583 -4.349424 88.706106 -1.564084 -3.423802 -9.844477 -1.514773 -13.148775 6.932112 -3.448991 14.077333 -0.855119 0.000000 -0.000000 0.000000 -0.454303 -1.880737 3.494467 -1.369252 17.636004 20.054421 4.963770 -9.968143 -21.036078 0.000000 -0.000000 0.000000 1.472800 5.531756 5.606955 -5.520475 -1.419491 3.833536 -1.123519 4.814399 -4.111535 -6.274107 3.789328 0.938415 3.364367 3.141731 -13.979843 22.830088 -22.426776 -22.138431 11.517165 -23.163033 -21.243225 20.076117 -26.439426 -32.024174 3.768123 -9.758178 -11.405104 -28.959898 27.137503 -17.683975 -19.603283 23.552139 -36.392041 -11.071268 4.774955 -35.270443 -16.301894 4.020531 -6.819812 
0.120888 -0.319439 1.031731 21.273831 -4.765653 88.871614 -1.567687 -3.236890 -9.958223 -0.834070 -12.568260 5.030558 -4.709877 13.338351 1.139544 0.000000 -0.000000 0.000000 -0.892386 -2.178456 3.585324 -2.130797 17.778924 17.657375 5.245159 -8.901541 -20.750542 0.000000 -0.000000 0.000000 2.454919 5.581990 5.986710 -6.098213 -0.940773 3.811069 -1.636239 4.869302 -4.049898 -7.813235 4.414533 0.905319 1.969334 3.268757 -13.685806 21.470140 -21.571686 -21.306834 10.774831 -22.130377 -20.486446 21.509564 -28.133402 -32.632986 3.731727 -10.437782 -11.616927 -27.682438 26.808577 -17.294223 -20.539978 23.600886 -36.826616 -12.828795 7.336629 -35.511268 -17.168857 5.459556 -4.905002 
